<?xml version="1.0" standalone="no"?><!DOCTYPE svg PUBLIC "-//W3C//DTD SVG 1.1//EN" "http://www.w3.org/Graphics/SVG/1.1/DTD/svg11.dtd"><svg t="1781076816819" class="icon" viewBox="0 0 1024 1024" version="1.1" xmlns="http://www.w3.org/2000/svg" p-id="5731" xmlns:xlink="http://www.w3.org/1999/xlink" width="200" height="200"><path d="M706.5 188.4H190.2c-29.8 0-54 24.2-54 54v662.9c0 29.8 24.2 54 54 54h516.3c29.8 0 54-24.2 54-54V242.4c0-29.8-24.2-54-54-54z m-18 698.9H208.2V260.4h480.3v626.9z" p-id="5732"></path><path d="M313.7 512.2h275.2c19.9 0 36-16.1 36-36s-16.1-36-36-36H313.7c-19.9 0-36 16.1-36 36s16.1 36 36 36zM313.7 715.2h201.6c19.9 0 36-16.1 36-36s-16.1-36-36-36H313.7c-19.9 0-36 16.1-36 36s16.1 36 36 36z" p-id="5733"></path><path d="M837.2 64.7H302.9c-19.9 0-36 16.1-36 36s16.1 36 36 36h516.3v662.9c0 19.9 16.1 36 36 36s36-16.1 36-36V118.7c0-29.8-24.2-54-54-54z" p-id="5734"></path></svg>